{
	"asset":{
		"generator":"Khronos glTF Blender I/O v3.6.27",
		"version":"2.0"
	},
	"extensionsUsed":[
		"KHR_materials_emissive_strength"
	],
	"scene":0,
	"scenes":[
		{
			"name":"Scene",
			"nodes":[
				0,
				1,
				2,
				3,
				4,
				5,
				6,
				7,
				8,
				9,
				10,
				11,
				12,
				13
			]
		}
	],
	"nodes":[
		{
			"mesh":0,
			"name":"Lighthouse",
			"scale":[
				0.8646752238273621,
				0.8646752238273621,
				0.8646752238273621
			],
			"translation":[
				4.3591742515563965,
				1.0812445878982544,
				-4.717888355255127
			]
		},
		{
			"mesh":1,
			"name":"Water",
			"scale":[
				30,
				30,
				30
			]
		},
		{
			"mesh":2,
			"name":"Base Rocks"
		},
		{
			"mesh":3,
			"name":"Cube",
			"rotation":[
				0,
				0.314970999956131,
				0,
				0.9491013288497925
			],
			"scale":[
				0.26848304271698,
				0.26848304271698,
				0.26848304271698
			],
			"translation":[
				-2.5610158443450928,
				2.2716140747070312,
				1.230771541595459
			]
		},
		{
			"mesh":4,
			"name":"Cube.001",
			"scale":[
				0.26848304271698,
				0.26848304271698,
				0.26848304271698
			],
			"translation":[
				-4.703231334686279,
				2.525665283203125,
				-2.221919059753418
			]
		},
		{
			"mesh":5,
			"name":"Cube.002",
			"rotation":[
				0,
				0.572666347026825,
				0,
				0.8197885155677795
			],
			"scale":[
				0.26848307251930237,
				0.26848304271698,
				0.26848307251930237
			],
			"translation":[
				-6.051626205444336,
				2.7648353576660156,
				1.543649673461914
			]
		},
		{
			"mesh":6,
			"name":"Cube.003",
			"rotation":[
				0,
				0.9954773187637329,
				0,
				0.09500037878751755
			],
			"scale":[
				0.26848304271698,
				0.26848304271698,
				0.26848304271698
			],
			"translation":[
				-2.092339038848877,
				2.3737363815307617,
				2.079639434814453
			]
		},
		{
			"mesh":3,
			"name":"Cube.004",
			"scale":[
				0.26848304271698,
				0.26848304271698,
				0.26848304271698
			],
			"translation":[
				-5.421463966369629,
				2.7405996322631836,
				0.14356136322021484
			]
		},
		{
			"mesh":4,
			"name":"Cube.005",
			"rotation":[
				0,
				-0.019476931542158127,
				0,
				0.9998103380203247
			],
			"scale":[
				0.26848304271698,
				0.26848304271698,
				0.26848304271698
			],
			"translation":[
				-4.547240257263184,
				2.881314277648926,
				1.6633005142211914
			]
		},
		{
			"mesh":4,
			"name":"Cube.006",
			"rotation":[
				0,
				-0.026357566937804222,
				0,
				0.9996526837348938
			],
			"scale":[
				0.26848307251930237,
				0.26848304271698,
				0.26848307251930237
			],
			"translation":[
				-3.4339709281921387,
				2.6045804023742676,
				1.3667449951171875
			]
		},
		{
			"mesh":3,
			"name":"Cube.007",
			"rotation":[
				0,
				-0.13162648677825928,
				0,
				0.9912993907928467
			],
			"scale":[
				0.26848304271698,
				0.26848304271698,
				0.26848304271698
			],
			"translation":[
				-3.864980936050415,
				2.6054811477661133,
				0.5941991806030273
			]
		},
		{
			"mesh":4,
			"name":"Cube.008",
			"rotation":[
				0,
				-0.1603507697582245,
				0,
				0.9870601892471313
			],
			"scale":[
				0.26848304271698,
				0.26848304271698,
				0.26848304271698
			],
			"translation":[
				-5.029665946960449,
				2.662351131439209,
				-0.9995088577270508
			]
		},
		{
			"mesh":4,
			"name":"Cube.009",
			"rotation":[
				0,
				0.18870504200458527,
				0,
				0.982033908367157
			],
			"scale":[
				0.26848304271698,
				0.26848304271698,
				0.26848304271698
			],
			"translation":[
				-3.499006748199463,
				2.394388198852539,
				-0.3392324447631836
			]
		},
		{
			"mesh":3,
			"name":"Cube.010",
			"rotation":[
				0,
				0.088326096534729,
				0,
				0.9960917234420776
			],
			"scale":[
				0.26848304271698,
				0.26848304271698,
				0.26848304271698
			],
			"translation":[
				-4.187259197235107,
				2.634737491607666,
				-0.45569896697998047
			]
		}
	],
	"materials":[
		{
			"doubleSided":true,
			"name":"White",
			"pbrMetallicRoughness":{
				"baseColorFactor":[
					0.800000011920929,
					0.800000011920929,
					0.800000011920929,
					1
				],
				"metallicFactor":0,
				"roughnessFactor":0.5
			}
		},
		{
			"doubleSided":true,
			"name":"Red",
			"pbrMetallicRoughness":{
				"baseColorFactor":[
					1,
					0,
					0.0031887877266854048,
					1
				],
				"metallicFactor":0,
				"roughnessFactor":0.5
			}
		},
		{
			"doubleSided":true,
			"name":"Grey Base",
			"pbrMetallicRoughness":{
				"baseColorFactor":[
					0.13073624670505524,
					0.13073624670505524,
					0.13073624670505524,
					1
				],
				"metallicFactor":0,
				"roughnessFactor":0.5
			}
		},
		{
			"doubleSided":true,
			"emissiveFactor":[
				1,
				0.9661282402462003,
				0.4065775998343356
			],
			"extensions":{
				"KHR_materials_emissive_strength":{
					"emissiveStrength":12.558737754821777
				}
			},
			"name":"Emission",
			"pbrMetallicRoughness":{
				"baseColorFactor":[
					0.800000011920929,
					0.800000011920929,
					0.800000011920929,
					1
				],
				"metallicFactor":0,
				"roughnessFactor":0.5
			}
		},
		{
			"doubleSided":true,
			"name":"Water",
			"pbrMetallicRoughness":{
				"baseColorFactor":[
					0.002737676724791527,
					0.002618212718516588,
					0.032507024705410004,
					1
				],
				"metallicFactor":0,
				"roughnessFactor":0
			}
		},
		{
			"doubleSided":true,
			"name":"Rock",
			"pbrMetallicRoughness":{
				"baseColorFactor":[
					0.08081407845020294,
					0.08081407845020294,
					0.08081407845020294,
					1
				],
				"metallicFactor":0
			}
		},
		{
			"doubleSided":true,
			"name":"House Yellow",
			"pbrMetallicRoughness":{
				"baseColorFactor":[
					0.6026673913002014,
					0.5541900992393494,
					0.369745135307312,
					1
				],
				"metallicFactor":0,
				"roughnessFactor":0.5
			}
		},
		{
			"doubleSided":true,
			"name":"House Red",
			"pbrMetallicRoughness":{
				"baseColorFactor":[
					0.8000000715255737,
					0.05158306285738945,
					0.05158306285738945,
					1
				],
				"metallicFactor":0,
				"roughnessFactor":0.5
			}
		}
	],
	"meshes":[
		{
			"name":"Cylinder",
			"primitives":[
				{
					"attributes":{
						"POSITION":0,
						"NORMAL":1,
						"TEXCOORD_0":2
					},
					"indices":3,
					"material":0
				},
				{
					"attributes":{
						"POSITION":4,
						"NORMAL":5,
						"TEXCOORD_0":6
					},
					"indices":7,
					"material":1
				},
				{
					"attributes":{
						"POSITION":8,
						"NORMAL":9,
						"TEXCOORD_0":10
					},
					"indices":11,
					"material":2
				},
				{
					"attributes":{
						"POSITION":12,
						"NORMAL":13,
						"TEXCOORD_0":14
					},
					"indices":15,
					"material":3
				}
			]
		},
		{
			"name":"Plane",
			"primitives":[
				{
					"attributes":{
						"POSITION":16,
						"NORMAL":17,
						"TEXCOORD_0":18
					},
					"indices":19,
					"material":4
				}
			]
		},
		{
			"name":"Icosphere",
			"primitives":[
				{
					"attributes":{
						"POSITION":20,
						"NORMAL":21,
						"TEXCOORD_0":22
					},
					"indices":23,
					"material":5
				}
			]
		},
		{
			"name":"Cube",
			"primitives":[
				{
					"attributes":{
						"POSITION":24,
						"NORMAL":25,
						"TEXCOORD_0":26
					},
					"indices":27,
					"material":6
				},
				{
					"attributes":{
						"POSITION":28,
						"NORMAL":29,
						"TEXCOORD_0":30
					},
					"indices":31,
					"material":7
				}
			]
		},
		{
			"name":"Cube.001",
			"primitives":[
				{
					"attributes":{
						"POSITION":32,
						"NORMAL":33,
						"TEXCOORD_0":34
					},
					"indices":35,
					"material":6
				},
				{
					"attributes":{
						"POSITION":36,
						"NORMAL":37,
						"TEXCOORD_0":38
					},
					"indices":39,
					"material":7
				}
			]
		},
		{
			"name":"Cube.002",
			"primitives":[
				{
					"attributes":{
						"POSITION":40,
						"NORMAL":41,
						"TEXCOORD_0":42
					},
					"indices":43,
					"material":6
				},
				{
					"attributes":{
						"POSITION":44,
						"NORMAL":45,
						"TEXCOORD_0":46
					},
					"indices":47,
					"material":7
				}
			]
		},
		{
			"name":"Cube.003",
			"primitives":[
				{
					"attributes":{
						"POSITION":48,
						"NORMAL":49,
						"TEXCOORD_0":50
					},
					"indices":51,
					"material":6
				},
				{
					"attributes":{
						"POSITION":52,
						"NORMAL":53,
						"TEXCOORD_0":54
					},
					"indices":55,
					"material":7
				}
			]
		}
	],
	"accessors":[
		{
			"bufferView":0,
			"componentType":5126,
			"count":388,
			"max":[
				1,
				9.792169570922852,
				1
			],
			"min":[
				-1,
				-0.4340411424636841,
				-1
			],
			"type":"VEC3"
		},
		{
			"bufferView":1,
			"componentType":5126,
			"count":388,
			"type":"VEC3"
		},
		{
			"bufferView":2,
			"componentType":5126,
			"count":388,
			"type":"VEC2"
		},
		{
			"bufferView":3,
			"componentType":5123,
			"count":852,
			"type":"SCALAR"
		},
		{
			"bufferView":4,
			"componentType":5126,
			"count":418,
			"max":[
				0.770409345626831,
				9.792169570922852,
				0.770409345626831
			],
			"min":[
				-0.770409345626831,
				2.271536350250244,
				-0.7704094052314758
			],
			"type":"VEC3"
		},
		{
			"bufferView":5,
			"componentType":5126,
			"count":418,
			"type":"VEC3"
		},
		{
			"bufferView":6,
			"componentType":5126,
			"count":418,
			"type":"VEC2"
		},
		{
			"bufferView":7,
			"componentType":5123,
			"count":768,
			"type":"SCALAR"
		},
		{
			"bufferView":8,
			"componentType":5126,
			"count":98,
			"max":[
				1,
				1,
				1
			],
			"min":[
				-1,
				-0.4340411424636841,
				-1
			],
			"type":"VEC3"
		},
		{
			"bufferView":9,
			"componentType":5126,
			"count":98,
			"type":"VEC3"
		},
		{
			"bufferView":10,
			"componentType":5126,
			"count":98,
			"type":"VEC2"
		},
		{
			"bufferView":11,
			"componentType":5123,
			"count":192,
			"type":"SCALAR"
		},
		{
			"bufferView":12,
			"componentType":5126,
			"count":64,
			"max":[
				0.5097841024398804,
				8.354263305664062,
				0.5097837448120117
			],
			"min":[
				-0.5097837448120117,
				7.498171329498291,
				-0.5097837448120117
			],
			"type":"VEC3"
		},
		{
			"bufferView":13,
			"componentType":5126,
			"count":64,
			"type":"VEC3"
		},
		{
			"bufferView":14,
			"componentType":5126,
			"count":64,
			"type":"VEC2"
		},
		{
			"bufferView":15,
			"componentType":5123,
			"count":96,
			"type":"SCALAR"
		},
		{
			"bufferView":16,
			"componentType":5126,
			"count":4,
			"max":[
				1,
				0,
				1
			],
			"min":[
				-1,
				0,
				-1
			],
			"type":"VEC3"
		},
		{
			"bufferView":17,
			"componentType":5126,
			"count":4,
			"type":"VEC3"
		},
		{
			"bufferView":18,
			"componentType":5126,
			"count":4,
			"type":"VEC2"
		},
		{
			"bufferView":19,
			"componentType":5123,
			"count":6,
			"type":"SCALAR"
		},
		{
			"bufferView":20,
			"componentType":5126,
			"count":460,
			"max":[
				6.693836688995361,
				2.953725814819336,
				4.1279144287109375
			],
			"min":[
				-7.594379901885986,
				-2.054630756378174,
				-8.019128799438477
			],
			"type":"VEC3"
		},
		{
			"bufferView":21,
			"componentType":5126,
			"count":460,
			"type":"VEC3"
		},
		{
			"bufferView":22,
			"componentType":5126,
			"count":460,
			"type":"VEC2"
		},
		{
			"bufferView":23,
			"componentType":5123,
			"count":474,
			"type":"SCALAR"
		},
		{
			"bufferView":24,
			"componentType":5126,
			"count":26,
			"max":[
				1,
				2.7948684692382812,
				1
			],
			"min":[
				-1,
				-0.20513153076171875,
				-1
			],
			"type":"VEC3"
		},
		{
			"bufferView":25,
			"componentType":5126,
			"count":26,
			"type":"VEC3"
		},
		{
			"bufferView":26,
			"componentType":5126,
			"count":26,
			"type":"VEC2"
		},
		{
			"bufferView":27,
			"componentType":5123,
			"count":48,
			"type":"SCALAR"
		},
		{
			"bufferView":28,
			"componentType":5126,
			"count":8,
			"max":[
				1,
				2.7948684692382812,
				1
			],
			"min":[
				-1,
				1.7948684692382812,
				-1
			],
			"type":"VEC3"
		},
		{
			"bufferView":29,
			"componentType":5126,
			"count":8,
			"type":"VEC3"
		},
		{
			"bufferView":30,
			"componentType":5126,
			"count":8,
			"type":"VEC2"
		},
		{
			"bufferView":31,
			"componentType":5123,
			"count":12,
			"type":"SCALAR"
		},
		{
			"bufferView":32,
			"componentType":5126,
			"count":26,
			"max":[
				1,
				1.7432057857513428,
				1
			],
			"min":[
				-1,
				-0.25679415464401245,
				-1
			],
			"type":"VEC3"
		},
		{
			"bufferView":33,
			"componentType":5126,
			"count":26,
			"type":"VEC3"
		},
		{
			"bufferView":34,
			"componentType":5126,
			"count":26,
			"type":"VEC2"
		},
		{
			"bufferView":35,
			"componentType":5123,
			"count":48,
			"type":"SCALAR"
		},
		{
			"bufferView":36,
			"componentType":5126,
			"count":8,
			"max":[
				1,
				1.7432057857513428,
				1
			],
			"min":[
				-1,
				0.7432058453559875,
				-1
			],
			"type":"VEC3"
		},
		{
			"bufferView":37,
			"componentType":5126,
			"count":8,
			"type":"VEC3"
		},
		{
			"bufferView":38,
			"componentType":5126,
			"count":8,
			"type":"VEC2"
		},
		{
			"bufferView":39,
			"componentType":5123,
			"count":12,
			"type":"SCALAR"
		},
		{
			"bufferView":40,
			"componentType":5126,
			"count":72,
			"max":[
				2,
				2.7432057857513428,
				2.5
			],
			"min":[
				-0.9999999403953552,
				-0.25679415464401245,
				-0.9999999403953552
			],
			"type":"VEC3"
		},
		{
			"bufferView":41,
			"componentType":5126,
			"count":72,
			"type":"VEC3"
		},
		{
			"bufferView":42,
			"componentType":5126,
			"count":72,
			"type":"VEC2"
		},
		{
			"bufferView":43,
			"componentType":5123,
			"count":162,
			"type":"SCALAR"
		},
		{
			"bufferView":44,
			"componentType":5126,
			"count":22,
			"max":[
				2,
				2.7432057857513428,
				2.5
			],
			"min":[
				-0.9999999403953552,
				0.7432058453559875,
				-0.9999999403953552
			],
			"type":"VEC3"
		},
		{
			"bufferView":45,
			"componentType":5126,
			"count":22,
			"type":"VEC3"
		},
		{
			"bufferView":46,
			"componentType":5126,
			"count":22,
			"type":"VEC2"
		},
		{
			"bufferView":47,
			"componentType":5123,
			"count":48,
			"type":"SCALAR"
		},
		{
			"bufferView":48,
			"componentType":5126,
			"count":55,
			"max":[
				1,
				2.7432057857513428,
				1
			],
			"min":[
				-2,
				-0.25679415464401245,
				-1
			],
			"type":"VEC3"
		},
		{
			"bufferView":49,
			"componentType":5126,
			"count":55,
			"type":"VEC3"
		},
		{
			"bufferView":50,
			"componentType":5126,
			"count":55,
			"type":"VEC2"
		},
		{
			"bufferView":51,
			"componentType":5123,
			"count":144,
			"type":"SCALAR"
		},
		{
			"bufferView":52,
			"componentType":5126,
			"count":20,
			"max":[
				1,
				2.7432057857513428,
				1
			],
			"min":[
				-2,
				0.7432058453559875,
				-1
			],
			"type":"VEC3"
		},
		{
			"bufferView":53,
			"componentType":5126,
			"count":20,
			"type":"VEC3"
		},
		{
			"bufferView":54,
			"componentType":5126,
			"count":20,
			"type":"VEC2"
		},
		{
			"bufferView":55,
			"componentType":5123,
			"count":36,
			"type":"SCALAR"
		}
	],
	"bufferViews":[
		{
			"buffer":0,
			"byteLength":4656,
			"byteOffset":0,
			"target":34962
		},
		{
			"buffer":0,
			"byteLength":4656,
			"byteOffset":4656,
			"target":34962
		},
		{
			"buffer":0,
			"byteLength":3104,
			"byteOffset":9312,
			"target":34962
		},
		{
			"buffer":0,
			"byteLength":1704,
			"byteOffset":12416,
			"target":34963
		},
		{
			"buffer":0,
			"byteLength":5016,
			"byteOffset":14120,
			"target":34962
		},
		{
			"buffer":0,
			"byteLength":5016,
			"byteOffset":19136,
			"target":34962
		},
		{
			"buffer":0,
			"byteLength":3344,
			"byteOffset":24152,
			"target":34962
		},
		{
			"buffer":0,
			"byteLength":1536,
			"byteOffset":27496,
			"target":34963
		},
		{
			"buffer":0,
			"byteLength":1176,
			"byteOffset":29032,
			"target":34962
		},
		{
			"buffer":0,
			"byteLength":1176,
			"byteOffset":30208,
			"target":34962
		},
		{
			"buffer":0,
			"byteLength":784,
			"byteOffset":31384,
			"target":34962
		},
		{
			"buffer":0,
			"byteLength":384,
			"byteOffset":32168,
			"target":34963
		},
		{
			"buffer":0,
			"byteLength":768,
			"byteOffset":32552,
			"target":34962
		},
		{
			"buffer":0,
			"byteLength":768,
			"byteOffset":33320,
			"target":34962
		},
		{
			"buffer":0,
			"byteLength":512,
			"byteOffset":34088,
			"target":34962
		},
		{
			"buffer":0,
			"byteLength":192,
			"byteOffset":34600,
			"target":34963
		},
		{
			"buffer":0,
			"byteLength":48,
			"byteOffset":34792,
			"target":34962
		},
		{
			"buffer":0,
			"byteLength":48,
			"byteOffset":34840,
			"target":34962
		},
		{
			"buffer":0,
			"byteLength":32,
			"byteOffset":34888,
			"target":34962
		},
		{
			"buffer":0,
			"byteLength":12,
			"byteOffset":34920,
			"target":34963
		},
		{
			"buffer":0,
			"byteLength":5520,
			"byteOffset":34932,
			"target":34962
		},
		{
			"buffer":0,
			"byteLength":5520,
			"byteOffset":40452,
			"target":34962
		},
		{
			"buffer":0,
			"byteLength":3680,
			"byteOffset":45972,
			"target":34962
		},
		{
			"buffer":0,
			"byteLength":948,
			"byteOffset":49652,
			"target":34963
		},
		{
			"buffer":0,
			"byteLength":312,
			"byteOffset":50600,
			"target":34962
		},
		{
			"buffer":0,
			"byteLength":312,
			"byteOffset":50912,
			"target":34962
		},
		{
			"buffer":0,
			"byteLength":208,
			"byteOffset":51224,
			"target":34962
		},
		{
			"buffer":0,
			"byteLength":96,
			"byteOffset":51432,
			"target":34963
		},
		{
			"buffer":0,
			"byteLength":96,
			"byteOffset":51528,
			"target":34962
		},
		{
			"buffer":0,
			"byteLength":96,
			"byteOffset":51624,
			"target":34962
		},
		{
			"buffer":0,
			"byteLength":64,
			"byteOffset":51720,
			"target":34962
		},
		{
			"buffer":0,
			"byteLength":24,
			"byteOffset":51784,
			"target":34963
		},
		{
			"buffer":0,
			"byteLength":312,
			"byteOffset":51808,
			"target":34962
		},
		{
			"buffer":0,
			"byteLength":312,
			"byteOffset":52120,
			"target":34962
		},
		{
			"buffer":0,
			"byteLength":208,
			"byteOffset":52432,
			"target":34962
		},
		{
			"buffer":0,
			"byteLength":96,
			"byteOffset":52640,
			"target":34963
		},
		{
			"buffer":0,
			"byteLength":96,
			"byteOffset":52736,
			"target":34962
		},
		{
			"buffer":0,
			"byteLength":96,
			"byteOffset":52832,
			"target":34962
		},
		{
			"buffer":0,
			"byteLength":64,
			"byteOffset":52928,
			"target":34962
		},
		{
			"buffer":0,
			"byteLength":24,
			"byteOffset":52992,
			"target":34963
		},
		{
			"buffer":0,
			"byteLength":864,
			"byteOffset":53016,
			"target":34962
		},
		{
			"buffer":0,
			"byteLength":864,
			"byteOffset":53880,
			"target":34962
		},
		{
			"buffer":0,
			"byteLength":576,
			"byteOffset":54744,
			"target":34962
		},
		{
			"buffer":0,
			"byteLength":324,
			"byteOffset":55320,
			"target":34963
		},
		{
			"buffer":0,
			"byteLength":264,
			"byteOffset":55644,
			"target":34962
		},
		{
			"buffer":0,
			"byteLength":264,
			"byteOffset":55908,
			"target":34962
		},
		{
			"buffer":0,
			"byteLength":176,
			"byteOffset":56172,
			"target":34962
		},
		{
			"buffer":0,
			"byteLength":96,
			"byteOffset":56348,
			"target":34963
		},
		{
			"buffer":0,
			"byteLength":660,
			"byteOffset":56444,
			"target":34962
		},
		{
			"buffer":0,
			"byteLength":660,
			"byteOffset":57104,
			"target":34962
		},
		{
			"buffer":0,
			"byteLength":440,
			"byteOffset":57764,
			"target":34962
		},
		{
			"buffer":0,
			"byteLength":288,
			"byteOffset":58204,
			"target":34963
		},
		{
			"buffer":0,
			"byteLength":240,
			"byteOffset":58492,
			"target":34962
		},
		{
			"buffer":0,
			"byteLength":240,
			"byteOffset":58732,
			"target":34962
		},
		{
			"buffer":0,
			"byteLength":160,
			"byteOffset":58972,
			"target":34962
		},
		{
			"buffer":0,
			"byteLength":72,
			"byteOffset":59132,
			"target":34963
		}
	],
	"buffers":[
		{
			"byteLength":59204,
			"uri":"data:application/octet-stream;base64,"
		}
	]
}
